<?xml version="1.0" encoding="UTF-8"?>
<svg id="Objects" xmlns="http://www.w3.org/2000/svg" version="1.1" viewBox="0 0 395.5 121.1">
  <!-- Generator: Adobe Illustrator 29.5.1, SVG Export Plug-In . SVG Version: 2.1.0 Build 141)  -->
  <defs>
    <style>
      .st0 {
        fill: #0395c7;
      }

      .st1 {
        fill: #037ba5;
      }

      .st2 {
        fill: #409363;
      }
    </style>
  </defs>
  <g>
    <path class="st0" d="M96.2,42v6.1c0,11.8-2,22.2-6.1,30.6-3.2,6.9-7.5,12.4-13,17-9.2,7.5-18.5,8.7-19,8.9-.6,0-9.8-1.4-19-8.9-5.5-4.3-9.8-10.1-13-17-4-8.7-6.1-18.8-6.1-30.6v-14.1l38.1-16.7,24.2,10.7,6.9-6.6-31.2-13.9L11.3,28.2v19c0,13.6,2.3,25.4,6.9,35.5,3.8,8.1,8.9,15,15.9,20.5,11.5,9.2,22.8,10.7,23.4,10.7h1.7c.6,0,12.1-1.7,23.4-10.7,6.6-5.5,11.8-12.1,15.9-20.5,4.6-9.8,6.9-21.9,6.9-35.5v-18.8l-8.7,13.6h-.6Z"/>
    <path class="st2" d="M101.9,21.8l-38.4,59.7c-2.3,3.8-7.5,3.8-10.1.3l-24.5-32.9c-1.2-1.4.6-3.5,2-2.6l26.3,13.3,42.1-40.1c1.4-1.4,3.8.6,2.6,2.3Z"/>
    <path class="st1" d="M104.8,28.7v18.8c0,13.6-2.3,25.4-6.9,35.5-3.8,8.1-8.9,15-15.9,20.5-11.5,9.2-22.8,10.7-23.4,10.7h-.9v-8.9c.6,0,9.8-1.4,19-8.9,5.5-4.3,9.8-10.1,13-17,4-8.7,6.1-18.8,6.1-30.6v-6.1l8.7-13.6.3-.3Z"/>
    <polygon class="st1" points="89.3 21.2 82.3 27.9 58.1 16.9 58.1 7.4 89.3 21.2"/>
  </g>
  <g>
    <g>
      <path class="st1" d="M125.3,27c1.4-2.6,3.5-4.9,6.3-6.3,2.6-1.4,5.8-2.3,9.2-2.3s7.8,1.2,10.7,3.2c2.9,2.3,4.9,5.2,6.1,8.9h-9.5c-.6-1.4-1.7-2.6-2.9-3.5s-2.9-1.2-4.3-1.2c-2.6,0-4.9.9-6.3,2.9-1.7,1.7-2.3,4.3-2.3,7.2s.9,5.5,2.3,7.2c1.7,1.7,3.8,2.9,6.3,2.9s3.2-.3,4.3-1.2c1.2-.9,2.3-2,2.9-3.5h9.5c-.9,3.8-2.9,6.9-6.1,8.9-2.9,2.3-6.6,3.2-10.7,3.2s-6.3-.9-9.2-2.3c-2.6-1.4-4.9-3.8-6.3-6.3s-2.3-5.8-2.3-9.2.9-6.6,2.3-9.2v.6Z"/>
      <path class="st1" d="M190.3,25.9v28h-8.7v-3.8c-.9,1.2-2,2.3-3.5,2.9-1.4.9-3.2,1.2-4.9,1.2s-4-.6-5.8-1.4-2.9-2.3-3.8-4-1.4-4-1.4-6.3v-16.4h8.4v15.3c0,1.7.6,3.5,1.4,4.3.9,1.2,2.3,1.4,4,1.4s2.9-.6,4-1.4c.9-1.2,1.4-2.6,1.4-4.3v-15.3h8.7Z"/>
      <path class="st1" d="M201.2,53c-2-.9-3.5-2-4.6-3.5s-1.7-3.2-1.7-4.9h8.4c0,.9.6,1.7,1.4,2.3s1.7.9,2.9.9,2,0,2.6-.6c.6-.3.9-.9.9-1.7s-.3-1.4-1.2-1.7-2.3-.9-4-1.2c-2-.6-3.8-.9-4.9-1.4-1.4-.6-2.6-1.4-3.5-2.3-.9-1.2-1.4-2.6-1.4-4.6s.6-3.2,1.4-4.3c.9-1.4,2.3-2.3,4-3.2s3.8-1.2,6.1-1.2c3.5,0,6.3.9,8.4,2.6,2,1.7,3.2,4,3.5,6.9h-7.8c0-.9-.6-1.7-1.2-2.3-.6-.6-1.7-.9-2.9-.9s-1.7,0-2.3.6c-.6.3-.9.9-.9,1.4s.3,1.4,1.2,1.7,2.3.9,4,1.2c2,.6,3.8,1.2,5.2,1.4,1.4.6,2.3,1.4,3.5,2.6.9,1.2,1.4,2.6,1.4,4.6s-.6,3.2-1.4,4.3-2.3,2.3-4,2.9c-1.7.9-3.8,1.2-6.1,1.2s-4.6-.3-6.6-1.2l-.3.3Z"/>
      <path class="st1" d="M239.9,46.6v7.2h-4.3c-3.2,0-5.5-.9-7.2-2.3s-2.6-4-2.6-7.5v-11h-3.5v-7.2h3.5v-6.9h8.7v6.9h5.5v7.2h-5.5v11.3c0,.9,0,1.4.6,1.7.3.3,1.2.6,2,.6h3.2-.3Z"/>
      <path class="st1" d="M250,52.4c-2.3-1.2-4-2.9-5.2-4.9-1.2-2.3-2-4.6-2-7.5s.6-5.5,2-7.5c1.2-2.3,2.9-3.8,5.2-4.9s4.6-1.7,7.5-1.7,5.2.6,7.5,1.7c2.3,1.2,4,2.9,5.2,4.9,1.2,2.3,2,4.6,2,7.5s-.6,5.5-2,7.5c-1.2,2.3-3.2,3.8-5.2,4.9-2.3,1.2-4.6,1.7-7.5,1.7s-5.2-.6-7.5-1.7ZM261.5,44.9c1.2-1.2,1.7-2.9,1.7-5.2s-.6-4-1.7-5.2c-1.2-1.2-2.6-1.7-4-1.7s-3.2.6-4,1.7c-1.2,1.2-1.7,2.9-1.7,5.2s.6,4,1.7,5.2c1.2,1.2,2.3,1.7,4,1.7s2.9-.6,4-1.7Z"/>
      <path class="st1" d="M320.4,28.7c2,2,3.2,4.9,3.2,8.7v16.4h-8.4v-15.3c0-1.7-.6-3.2-1.4-4-.9-.9-2.3-1.4-4-1.4s-2.9.6-4,1.4c-.9.9-1.4,2.3-1.4,4v15.3h-8.4v-15.3c0-1.7-.6-3.2-1.4-4-.9-.9-2.3-1.4-4-1.4s-2.9.6-4,1.4c-.9.9-1.4,2.3-1.4,4v15.3h-8.7v-28h8.7v3.5c.9-1.2,2-2,3.5-2.9s2.9-1.2,4.6-1.2,4,.6,5.8,1.4,2.9,2.3,3.8,3.8c.9-1.4,2.3-2.9,4-3.8s3.5-1.4,5.5-1.4c3.5,0,6.3,1.2,8.4,3.2v.3Z"/>
      <path class="st1" d="M355.6,42h-19.3c0,1.7.6,3.2,1.7,4,.9.9,2.3,1.4,3.8,1.4s3.8-.9,4.3-2.6h9.2c-.6,1.7-1.4,3.5-2.6,4.9s-2.9,2.6-4.6,3.5c-1.7.9-3.8,1.2-6.1,1.2s-5.2-.6-7.2-1.7-3.8-2.9-4.9-4.9c-1.2-2.3-1.7-4.6-1.7-7.5s.6-5.5,1.7-7.5c1.2-2.3,2.9-3.8,4.9-4.9s4.6-1.7,7.2-1.7,5.2.6,7.2,1.7c2,1.2,3.8,2.9,4.9,4.9,1.2,2,1.7,4.6,1.7,7.2v2.6l-.3-.6ZM347,37.1c0-1.4-.6-2.6-1.4-3.5s-2.3-1.4-3.8-1.4-2.6.3-3.8,1.2c-.9.9-1.7,2-1.7,3.5h10.7v.3Z"/>
      <path class="st1" d="M372.7,27c1.4-.9,3.2-1.4,4.9-1.4v8.9h-2.3c-2,0-3.8.6-4.9,1.4-1.2.9-1.7,2.6-1.7,4.9v13h-8.7v-28h8.7v4.6c.9-1.4,2.3-2.9,3.8-3.8l.3.3Z"/>
    </g>
    <g>
      <path class="st1" d="M142.4,97.7l-7.2-13.3h-2v13.3h-8.7v-35.2h14.4c2.9,0,5.2.6,7.2,1.4s3.5,2.3,4.3,4,1.4,3.5,1.4,5.8-.6,4.3-2,6.3c-1.4,1.7-3.2,3.2-5.8,4l8.1,13.9h-9.5l-.3-.3ZM133.1,78.4h5.2c1.4,0,2.9-.3,3.5-1.2.9-.9,1.2-1.7,1.2-3.2s-.3-2.3-1.2-3.2c-.9-.9-2-1.2-3.5-1.2h-5.2v8.7Z"/>
      <path class="st1" d="M183.3,85.9h-19.3c0,1.7.6,3.2,1.7,4,.9.9,2.3,1.4,3.8,1.4s3.8-.9,4.3-2.6h9.2c-.6,1.7-1.4,3.5-2.6,4.9s-2.9,2.6-4.6,3.5-3.8,1.2-6.1,1.2-5.2-.6-7.2-1.7c-2-1.2-3.8-2.9-4.9-4.9-1.2-2.3-1.7-4.6-1.7-7.5s.6-5.5,1.7-7.5c1.2-2.3,2.9-3.8,4.9-4.9,2-1.2,4.6-1.7,7.2-1.7s5.2.6,7.2,1.7,3.8,2.9,4.9,4.9,1.7,4.6,1.7,7.2v2.6l-.3-.6ZM174.7,81c0-1.4-.6-2.6-1.4-3.5-.9-.9-2.3-1.4-3.8-1.4s-2.6.3-3.8,1.2c-.9.9-1.7,2-1.7,3.5h10.7v.3Z"/>
      <path class="st1" d="M200.1,70.6c1.4-.9,3.2-1.2,5.2-1.2s4.3.6,6.3,1.7c1.7,1.2,3.5,2.9,4.3,4.9,1.2,2.3,1.7,4.6,1.7,7.5s-.6,5.5-1.7,7.5c-1.2,2.3-2.6,3.8-4.3,5.2-1.7,1.2-4,1.7-6.3,1.7s-3.8-.3-5.2-1.2c-1.4-.9-2.6-1.7-3.5-3.2v17.3h-8.7v-41.3h8.7v4c.9-1.4,2-2.3,3.5-3.2ZM207,78.7c-1.2-1.2-2.6-1.7-4.3-1.7s-3.2.6-4.3,1.7-1.7,2.9-1.7,5.2.6,3.8,1.7,5.2c1.2,1.2,2.6,1.7,4.3,1.7s3.2-.6,4.3-2c1.2-1.2,1.7-2.9,1.7-5.2s-.6-3.8-1.7-4.9Z"/>
      <path class="st1" d="M227.2,96.3c-2.3-1.2-4-2.9-5.2-4.9-1.2-2.3-2-4.6-2-7.5s.6-5.5,2-7.5c1.2-2.3,2.9-3.8,5.2-4.9,2.3-1.2,4.6-1.7,7.5-1.7s5.2.6,7.5,1.7c2.3,1.2,4,2.9,5.2,4.9,1.2,2.3,2,4.6,2,7.5s-.6,5.5-2,7.5c-1.2,2.3-3.2,3.8-5.2,4.9-2.3,1.2-4.6,1.7-7.5,1.7s-5.2-.6-7.5-1.7ZM238.7,88.8c1.2-1.2,1.7-2.9,1.7-5.2s-.6-4-1.7-5.2-2.6-1.7-4-1.7-3.2.6-4,1.7c-1.2,1.2-1.7,2.9-1.7,5.2s.6,4,1.7,5.2,2.3,1.7,4,1.7,2.9-.6,4-1.7Z"/>
      <path class="st1" d="M266.2,70.9c1.4-.9,3.2-1.4,4.9-1.4v8.9h-2.3c-2,0-3.8.6-4.9,1.4-1.2.9-1.7,2.6-1.7,4.9v13h-8.7v-28h8.7v4.6c.9-1.4,2.3-2.9,3.8-3.8l.3.3Z"/>
      <path class="st1" d="M290.7,90.5v7.2h-4.3c-3.2,0-5.5-.9-7.2-2.3s-2.6-4-2.6-7.5v-11h-3.5v-7.2h3.5v-6.9h8.7v6.9h5.5v7.2h-5.5v11.3c0,.9,0,1.4.6,1.7.3.3,1.2.6,2,.6h3.2-.3Z"/>
      <path class="st1" d="M300.5,96.9c-2-.9-3.5-2-4.6-3.5s-1.7-3.2-1.7-4.9h8.4c0,.9.6,1.7,1.4,2.3.9.6,1.7.9,2.9.9s2,0,2.6-.6c.6-.3.9-.9.9-1.7s-.3-1.4-1.2-1.7-2.3-.9-4-1.2c-2-.6-3.8-.9-4.9-1.4-1.4-.6-2.6-1.4-3.5-2.3-.9-1.2-1.4-2.6-1.4-4.6s.6-3.2,1.4-4.3c.9-1.4,2.3-2.3,4-3.2,1.7-.9,3.8-1.2,6.1-1.2,3.5,0,6.3.9,8.4,2.6,2,1.7,3.2,4,3.5,6.9h-7.8c0-.9-.6-1.7-1.2-2.3-.6-.6-1.7-.9-2.9-.9s-1.7,0-2.3.6c-.6.3-.9.9-.9,1.4s.3,1.4,1.2,1.7,2.3.9,4,1.2c2,.6,3.8,1.2,5.2,1.4,1.4.6,2.3,1.4,3.5,2.6.9,1.2,1.4,2.6,1.4,4.6s-.6,3.2-1.4,4.3c-.9,1.2-2.3,2.3-4,2.9-1.7.9-3.8,1.2-6.1,1.2s-4.6-.3-6.6-1.2l-.3.3Z"/>
    </g>
  </g>
</svg>