<?xml version="1.0" encoding="UTF-8"?>
<svg id="Objects" xmlns="http://www.w3.org/2000/svg" version="1.1" viewBox="0 0 765.2 121.1">
  <!-- Generator: Adobe Illustrator 29.5.1, SVG Export Plug-In . SVG Version: 2.1.0 Build 141)  -->
  <defs>
    <style>
      .st0, .st1 {
        fill: #0395c7;
      }

      .st2 {
        fill: #037ba5;
      }

      .st1 {
        stroke: #0395c7;
        stroke-miterlimit: 10;
        stroke-width: .2px;
      }

      .st3 {
        fill: #409363;
      }
    </style>
  </defs>
  <g>
    <g>
      <path class="st0" d="M96.2,43v6.1c0,11.8-2,22.2-6.1,30.6-3.2,6.9-7.5,12.4-13,17-9.2,7.5-18.5,8.7-19,8.9-.6,0-9.8-1.4-19-8.9-5.5-4.3-9.8-10.1-13-17-4-8.7-6.1-18.8-6.1-30.6v-14.1l38.1-16.7,24.2,10.7,6.9-6.6-31.2-13.9L11.3,29.2v19c0,13.6,2.3,25.4,6.9,35.5,3.8,8.1,8.9,15,15.9,20.5,11.5,9.2,22.8,10.7,23.4,10.7h1.7c.6,0,12.1-1.7,23.4-10.7,6.6-5.5,11.8-12.1,15.9-20.5,4.6-9.8,6.9-21.9,6.9-35.5v-18.8l-8.7,13.6h-.6Z"/>
      <path class="st3" d="M101.9,22.8l-38.4,59.7c-2.3,3.8-7.5,3.8-10.1.3l-24.5-32.9c-1.2-1.4.6-3.5,2-2.6l26.3,13.3,42.1-40.1c1.4-1.4,3.8.6,2.6,2.3Z"/>
      <path class="st2" d="M104.8,29.7v18.8c0,13.6-2.3,25.4-6.9,35.5-3.8,8.1-8.9,15-15.9,20.5-11.5,9.2-22.8,10.7-23.4,10.7h-.9v-8.9c.6,0,9.8-1.4,19-8.9,5.5-4.3,9.8-10.1,13-17,4-8.7,6.1-18.8,6.1-30.6v-6.1l8.7-13.6.3-.3Z"/>
      <polygon class="st2" points="89.3 22.2 82.3 28.9 58.1 17.9 58.1 8.4 89.3 22.2"/>
    </g>
    <g>
      <g>
        <path class="st2" d="M125.3,28c1.4-2.6,3.5-4.9,6.3-6.3,2.6-1.4,5.8-2.3,9.2-2.3s7.8,1.2,10.7,3.2c2.9,2.3,4.9,5.2,6.1,8.9h-9.5c-.6-1.4-1.7-2.6-2.9-3.5s-2.9-1.2-4.3-1.2c-2.6,0-4.9.9-6.3,2.9-1.7,1.7-2.3,4.3-2.3,7.2s.9,5.5,2.3,7.2c1.7,1.7,3.8,2.9,6.3,2.9s3.2-.3,4.3-1.2c1.2-.9,2.3-2,2.9-3.5h9.5c-.9,3.8-2.9,6.9-6.1,8.9-2.9,2.3-6.6,3.2-10.7,3.2s-6.3-.9-9.2-2.3c-2.6-1.4-4.9-3.8-6.3-6.3s-2.3-5.8-2.3-9.2.9-6.6,2.3-9.2v.6Z"/>
        <path class="st2" d="M190.3,26.9v28h-8.7v-3.8c-.9,1.2-2,2.3-3.5,2.9-1.4.9-3.2,1.2-4.9,1.2s-4-.6-5.8-1.4-2.9-2.3-3.8-4-1.4-4-1.4-6.3v-16.4h8.4v15.3c0,1.7.6,3.5,1.4,4.3.9,1.2,2.3,1.4,4,1.4s2.9-.6,4-1.4c.9-1.2,1.4-2.6,1.4-4.3v-15.3h8.7Z"/>
        <path class="st2" d="M201.2,54c-2-.9-3.5-2-4.6-3.5s-1.7-3.2-1.7-4.9h8.4c0,.9.6,1.7,1.4,2.3s1.7.9,2.9.9,2,0,2.6-.6c.6-.3.9-.9.9-1.7s-.3-1.4-1.2-1.7-2.3-.9-4-1.2c-2-.6-3.8-.9-4.9-1.4-1.4-.6-2.6-1.4-3.5-2.3-.9-1.2-1.4-2.6-1.4-4.6s.6-3.2,1.4-4.3c.9-1.4,2.3-2.3,4-3.2s3.8-1.2,6.1-1.2c3.5,0,6.3.9,8.4,2.6,2,1.7,3.2,4,3.5,6.9h-7.8c0-.9-.6-1.7-1.2-2.3-.6-.6-1.7-.9-2.9-.9s-1.7,0-2.3.6c-.6.3-.9.9-.9,1.4s.3,1.4,1.2,1.7,2.3.9,4,1.2c2,.6,3.8,1.2,5.2,1.4,1.4.6,2.3,1.4,3.5,2.6.9,1.2,1.4,2.6,1.4,4.6s-.6,3.2-1.4,4.3-2.3,2.3-4,2.9c-1.7.9-3.8,1.2-6.1,1.2s-4.6-.3-6.6-1.2l-.3.3Z"/>
        <path class="st2" d="M239.9,47.6v7.2h-4.3c-3.2,0-5.5-.9-7.2-2.3s-2.6-4-2.6-7.5v-11h-3.5v-7.2h3.5v-6.9h8.7v6.9h5.5v7.2h-5.5v11.3c0,.9,0,1.4.6,1.7.3.3,1.2.6,2,.6h3.2-.3Z"/>
        <path class="st2" d="M250,53.4c-2.3-1.2-4-2.9-5.2-4.9-1.2-2.3-2-4.6-2-7.5s.6-5.5,2-7.5c1.2-2.3,2.9-3.8,5.2-4.9s4.6-1.7,7.5-1.7,5.2.6,7.5,1.7c2.3,1.2,4,2.9,5.2,4.9,1.2,2.3,2,4.6,2,7.5s-.6,5.5-2,7.5c-1.2,2.3-3.2,3.8-5.2,4.9-2.3,1.2-4.6,1.7-7.5,1.7s-5.2-.6-7.5-1.7ZM261.5,45.9c1.2-1.2,1.7-2.9,1.7-5.2s-.6-4-1.7-5.2c-1.2-1.2-2.6-1.7-4-1.7s-3.2.6-4,1.7c-1.2,1.2-1.7,2.9-1.7,5.2s.6,4,1.7,5.2c1.2,1.2,2.3,1.7,4,1.7s2.9-.6,4-1.7Z"/>
        <path class="st2" d="M320.4,29.7c2,2,3.2,4.9,3.2,8.7v16.4h-8.4v-15.3c0-1.7-.6-3.2-1.4-4-.9-.9-2.3-1.4-4-1.4s-2.9.6-4,1.4c-.9.9-1.4,2.3-1.4,4v15.3h-8.4v-15.3c0-1.7-.6-3.2-1.4-4-.9-.9-2.3-1.4-4-1.4s-2.9.6-4,1.4c-.9.9-1.4,2.3-1.4,4v15.3h-8.7v-28h8.7v3.5c.9-1.2,2-2,3.5-2.9s2.9-1.2,4.6-1.2,4,.6,5.8,1.4,2.9,2.3,3.8,3.8c.9-1.4,2.3-2.9,4-3.8s3.5-1.4,5.5-1.4c3.5,0,6.3,1.2,8.4,3.2v.3Z"/>
        <path class="st2" d="M355.6,43h-19.3c0,1.7.6,3.2,1.7,4,.9.9,2.3,1.4,3.8,1.4s3.8-.9,4.3-2.6h9.2c-.6,1.7-1.4,3.5-2.6,4.9s-2.9,2.6-4.6,3.5c-1.7.9-3.8,1.2-6.1,1.2s-5.2-.6-7.2-1.7-3.8-2.9-4.9-4.9c-1.2-2.3-1.7-4.6-1.7-7.5s.6-5.5,1.7-7.5c1.2-2.3,2.9-3.8,4.9-4.9s4.6-1.7,7.2-1.7,5.2.6,7.2,1.7c2,1.2,3.8,2.9,4.9,4.9,1.2,2,1.7,4.6,1.7,7.2v2.6l-.3-.6ZM347,38.1c0-1.4-.6-2.6-1.4-3.5s-2.3-1.4-3.8-1.4-2.6.3-3.8,1.2c-.9.9-1.7,2-1.7,3.5h10.7v.3Z"/>
        <path class="st2" d="M372.7,28c1.4-.9,3.2-1.4,4.9-1.4v8.9h-2.3c-2,0-3.8.6-4.9,1.4-1.2.9-1.7,2.6-1.7,4.9v13h-8.7v-28h8.7v4.6c.9-1.4,2.3-2.9,3.8-3.8l.3.3Z"/>
      </g>
      <g>
        <path class="st2" d="M142.4,98.7l-7.2-13.3h-2v13.3h-8.7v-35.2h14.4c2.9,0,5.2.6,7.2,1.4s3.5,2.3,4.3,4,1.4,3.5,1.4,5.8-.6,4.3-2,6.3c-1.4,1.7-3.2,3.2-5.8,4l8.1,13.9h-9.5l-.3-.3ZM133.1,79.4h5.2c1.4,0,2.9-.3,3.5-1.2.9-.9,1.2-1.7,1.2-3.2s-.3-2.3-1.2-3.2c-.9-.9-2-1.2-3.5-1.2h-5.2v8.7Z"/>
        <path class="st2" d="M183.3,86.9h-19.3c0,1.7.6,3.2,1.7,4,.9.9,2.3,1.4,3.8,1.4s3.8-.9,4.3-2.6h9.2c-.6,1.7-1.4,3.5-2.6,4.9s-2.9,2.6-4.6,3.5-3.8,1.2-6.1,1.2-5.2-.6-7.2-1.7c-2-1.2-3.8-2.9-4.9-4.9-1.2-2.3-1.7-4.6-1.7-7.5s.6-5.5,1.7-7.5c1.2-2.3,2.9-3.8,4.9-4.9,2-1.2,4.6-1.7,7.2-1.7s5.2.6,7.2,1.7,3.8,2.9,4.9,4.9,1.7,4.6,1.7,7.2v2.6l-.3-.6ZM174.7,82c0-1.4-.6-2.6-1.4-3.5-.9-.9-2.3-1.4-3.8-1.4s-2.6.3-3.8,1.2c-.9.9-1.7,2-1.7,3.5h10.7v.3Z"/>
        <path class="st2" d="M200.1,71.6c1.4-.9,3.2-1.2,5.2-1.2s4.3.6,6.3,1.7c1.7,1.2,3.5,2.9,4.3,4.9,1.2,2.3,1.7,4.6,1.7,7.5s-.6,5.5-1.7,7.5c-1.2,2.3-2.6,3.8-4.3,5.2-1.7,1.2-4,1.7-6.3,1.7s-3.8-.3-5.2-1.2c-1.4-.9-2.6-1.7-3.5-3.2v17.3h-8.7v-41.3h8.7v4c.9-1.4,2-2.3,3.5-3.2ZM207,79.7c-1.2-1.2-2.6-1.7-4.3-1.7s-3.2.6-4.3,1.7-1.7,2.9-1.7,5.2.6,3.8,1.7,5.2c1.2,1.2,2.6,1.7,4.3,1.7s3.2-.6,4.3-2c1.2-1.2,1.7-2.9,1.7-5.2s-.6-3.8-1.7-4.9Z"/>
        <path class="st2" d="M227.2,97.3c-2.3-1.2-4-2.9-5.2-4.9-1.2-2.3-2-4.6-2-7.5s.6-5.5,2-7.5c1.2-2.3,2.9-3.8,5.2-4.9,2.3-1.2,4.6-1.7,7.5-1.7s5.2.6,7.5,1.7c2.3,1.2,4,2.9,5.2,4.9,1.2,2.3,2,4.6,2,7.5s-.6,5.5-2,7.5c-1.2,2.3-3.2,3.8-5.2,4.9-2.3,1.2-4.6,1.7-7.5,1.7s-5.2-.6-7.5-1.7ZM238.7,89.8c1.2-1.2,1.7-2.9,1.7-5.2s-.6-4-1.7-5.2-2.6-1.7-4-1.7-3.2.6-4,1.7c-1.2,1.2-1.7,2.9-1.7,5.2s.6,4,1.7,5.2,2.3,1.7,4,1.7,2.9-.6,4-1.7Z"/>
        <path class="st2" d="M266.2,71.9c1.4-.9,3.2-1.4,4.9-1.4v8.9h-2.3c-2,0-3.8.6-4.9,1.4-1.2.9-1.7,2.6-1.7,4.9v13h-8.7v-28h8.7v4.6c.9-1.4,2.3-2.9,3.8-3.8l.3.3Z"/>
        <path class="st2" d="M290.7,91.5v7.2h-4.3c-3.2,0-5.5-.9-7.2-2.3s-2.6-4-2.6-7.5v-11h-3.5v-7.2h3.5v-6.9h8.7v6.9h5.5v7.2h-5.5v11.3c0,.9,0,1.4.6,1.7.3.3,1.2.6,2,.6h3.2-.3Z"/>
        <path class="st2" d="M300.5,97.9c-2-.9-3.5-2-4.6-3.5s-1.7-3.2-1.7-4.9h8.4c0,.9.6,1.7,1.4,2.3.9.6,1.7.9,2.9.9s2,0,2.6-.6c.6-.3.9-.9.9-1.7s-.3-1.4-1.2-1.7-2.3-.9-4-1.2c-2-.6-3.8-.9-4.9-1.4-1.4-.6-2.6-1.4-3.5-2.3-.9-1.2-1.4-2.6-1.4-4.6s.6-3.2,1.4-4.3c.9-1.4,2.3-2.3,4-3.2,1.7-.9,3.8-1.2,6.1-1.2,3.5,0,6.3.9,8.4,2.6,2,1.7,3.2,4,3.5,6.9h-7.8c0-.9-.6-1.7-1.2-2.3-.6-.6-1.7-.9-2.9-.9s-1.7,0-2.3.6c-.6.3-.9.9-.9,1.4s.3,1.4,1.2,1.7,2.3.9,4,1.2c2,.6,3.8,1.2,5.2,1.4,1.4.6,2.3,1.4,3.5,2.6.9,1.2,1.4,2.6,1.4,4.6s-.6,3.2-1.4,4.3c-.9,1.2-2.3,2.3-4,2.9-1.7.9-3.8,1.2-6.1,1.2s-4.6-.3-6.6-1.2l-.3.3Z"/>
      </g>
    </g>
  </g>
  <rect class="st1" x="403.6" y="22" width="1.9" height="80.1"/>
  <g>
    <g>
      <path class="st2" d="M465.5,24.7v3.3h-9.6v25.7h-4v-25.7h-9.7v-3.3h23.3Z"/>
      <path class="st2" d="M465.8,53.6v-20.5h2.1c.4,0,.7,0,.8.2.2.1.3.4.3.8l.3,3.2c.7-1.4,1.6-2.5,2.7-3.3,1.1-.8,2.3-1.2,3.7-1.2s1.1,0,1.6.2c.5.1.9.3,1.3.5l-.5,2.7c0,.3-.3.5-.6.5s-.5,0-.9-.2c-.4-.1-1-.2-1.7-.2-1.3,0-2.4.4-3.2,1.1-.9.7-1.6,1.8-2.2,3.2v13h-3.7Z"/>
      <path class="st2" d="M485.8,33.2v13.1c0,1.5.4,2.7,1.1,3.6.7.8,1.8,1.3,3.3,1.3s2.1-.2,3.1-.7c1-.5,1.8-1.2,2.6-2.1v-15.1h3.7v20.5h-2.2c-.5,0-.9-.2-1-.7l-.3-2.2c-.9,1-1.9,1.8-3.1,2.4-1.1.6-2.4.9-3.9.9s-2.2-.2-3-.6c-.9-.4-1.6-.9-2.2-1.6-.6-.7-1-1.5-1.3-2.4-.3-1-.4-2-.4-3.2v-13.1h3.7Z"/>
      <path class="st2" d="M517.8,36.5c-.2.3-.4.4-.8.4s-.4,0-.7-.2c-.3-.1-.6-.3-1-.5-.4-.2-.8-.3-1.4-.5s-1.2-.2-1.9-.2-1.2,0-1.7.2c-.5.2-.9.4-1.3.6-.4.3-.6.6-.8.9-.2.4-.3.7-.3,1.2s.2,1,.5,1.3c.3.4.7.7,1.2.9.5.3,1.1.5,1.7.7.7.2,1.3.4,2,.6s1.4.5,2,.7c.7.3,1.2.6,1.8,1,.5.4.9.9,1.2,1.5.3.6.5,1.3.5,2.1s-.2,1.8-.5,2.6c-.3.8-.9,1.5-1.5,2.1s-1.5,1-2.5,1.4c-1,.3-2.1.5-3.4.5s-2.8-.2-4-.7c-1.2-.5-2.2-1.1-3-1.8l.9-1.4c.1-.2.2-.3.4-.4.2,0,.4-.1.6-.1s.5,0,.8.3c.3.2.6.4,1,.6.4.2.9.4,1.4.6.6.2,1.3.3,2.1.3s1.4,0,1.9-.3c.5-.2,1-.4,1.3-.7s.6-.7.8-1.1c.2-.4.3-.8.3-1.3s-.2-1-.5-1.4-.7-.7-1.2-.9c-.5-.3-1.1-.5-1.8-.7-.7-.2-1.3-.4-2-.6-.7-.2-1.4-.5-2-.7-.7-.3-1.2-.6-1.8-1-.5-.4-.9-.9-1.2-1.5s-.5-1.4-.5-2.2.2-1.5.5-2.3c.3-.7.8-1.4,1.5-1.9s1.4-1,2.4-1.3c.9-.3,2-.5,3.2-.5s2.6.2,3.7.6c1.1.4,2.1,1,2.9,1.7l-.8,1.3Z"/>
      <path class="st2" d="M530.1,54c-1.7,0-2.9-.5-3.8-1.4-.9-.9-1.3-2.2-1.3-3.9v-12.5h-2.5c-.2,0-.4,0-.6-.2-.2-.1-.2-.3-.2-.6v-1.4l3.5-.4.9-6.3c0-.2.1-.4.3-.5.2-.1.3-.2.6-.2h1.9v7h6v2.6h-6v12.3c0,.9.2,1.5.6,1.9.4.4,1,.6,1.7.6s.7,0,1-.2c.3-.1.5-.2.7-.3s.4-.2.5-.3c.1-.1.3-.2.4-.2.2,0,.4.1.5.3l1.1,1.7c-.6.6-1.4,1-2.3,1.4s-1.8.5-2.8.5Z"/>
      <path class="st2" d="M547.6,32.8c1.3,0,2.4.2,3.5.6,1.1.4,2,1,2.8,1.8.8.8,1.4,1.7,1.8,2.9s.7,2.4.7,3.9,0,.9-.2,1.1c-.1.2-.4.3-.7.3h-14c0,1.3.2,2.4.5,3.4.3,1,.8,1.8,1.4,2.4s1.3,1.1,2.1,1.4c.8.3,1.7.5,2.7.5s1.7-.1,2.4-.3c.7-.2,1.3-.4,1.7-.7.5-.2.9-.5,1.2-.7.3-.2.6-.3.8-.3s.5.1.7.3l1,1.3c-.5.5-1,1-1.6,1.4s-1.3.7-2,1-1.5.4-2.3.6c-.8.1-1.5.2-2.3.2-1.5,0-2.8-.2-4-.7-1.2-.5-2.3-1.2-3.2-2.1-.9-.9-1.6-2.1-2.1-3.4s-.7-2.9-.7-4.7.2-2.8.7-4c.5-1.2,1.1-2.3,1.9-3.2.8-.9,1.9-1.6,3.1-2.1s2.6-.8,4.1-.8ZM547.7,35.5c-1.8,0-3.2.5-4.2,1.5s-1.7,2.4-1.9,4.2h11.5c0-.8-.1-1.6-.4-2.3-.2-.7-.6-1.3-1-1.8-.5-.5-1-.9-1.7-1.2s-1.4-.4-2.3-.4Z"/>
      <path class="st2" d="M575.9,53.6c-.5,0-.9-.2-1-.7l-.3-2.5c-.9,1.1-1.9,1.9-3.1,2.6s-2.5,1-4,1-2.3-.2-3.3-.7c-1-.5-1.8-1.1-2.5-2-.7-.9-1.2-2-1.6-3.3s-.6-2.8-.6-4.5.2-2.9.6-4.2,1-2.4,1.8-3.4c.8-1,1.7-1.7,2.9-2.3s2.4-.8,3.8-.8,2.4.2,3.3.6,1.7,1,2.5,1.8v-11.4h3.7v29.8h-2.2ZM568.7,51c1.2,0,2.3-.3,3.2-.8.9-.5,1.7-1.3,2.5-2.3v-9.9c-.7-.9-1.4-1.5-2.2-1.9-.8-.4-1.7-.5-2.7-.5-2,0-3.5.7-4.5,2-1.1,1.4-1.6,3.3-1.6,5.8s.1,2.5.4,3.4c.2.9.6,1.7,1,2.3.5.6,1,1.1,1.7,1.3.7.3,1.4.4,2.3.4Z"/>
      <path class="st2" d="M597.4,41.6v12.1h-4v-28.9h8.4c1.9,0,3.5.2,4.9.6,1.4.4,2.5.9,3.4,1.6.9.7,1.6,1.5,2,2.5.4,1,.6,2.1.6,3.3s-.2,2-.5,2.9c-.3.9-.8,1.7-1.4,2.4-.6.7-1.4,1.3-2.3,1.8-.9.5-1.9.9-3.1,1.1.5.3.9.7,1.3,1.2l8.7,11.5h-3.6c-.7,0-1.3-.3-1.6-.8l-7.7-10.3c-.2-.3-.5-.6-.8-.7-.3-.1-.7-.2-1.2-.2h-3.1ZM597.4,38.7h4.2c1.2,0,2.2-.1,3.1-.4.9-.3,1.6-.7,2.2-1.2.6-.5,1.1-1.1,1.4-1.8.3-.7.5-1.5.5-2.3,0-1.7-.6-3-1.8-3.9s-2.9-1.3-5.2-1.3h-4.4v10.9Z"/>
      <path class="st2" d="M627.5,32.8c1.3,0,2.4.2,3.5.6,1.1.4,2,1,2.8,1.8.8.8,1.4,1.7,1.8,2.9s.7,2.4.7,3.9,0,.9-.2,1.1c-.1.2-.4.3-.7.3h-14c0,1.3.2,2.4.5,3.4.3,1,.8,1.8,1.4,2.4s1.3,1.1,2.1,1.4c.8.3,1.7.5,2.7.5s1.7-.1,2.4-.3c.7-.2,1.3-.4,1.7-.7.5-.2.9-.5,1.2-.7.3-.2.6-.3.8-.3s.5.1.7.3l1,1.3c-.5.5-1,1-1.6,1.4s-1.3.7-2,1-1.5.4-2.3.6c-.8.1-1.5.2-2.3.2-1.5,0-2.8-.2-4-.7-1.2-.5-2.3-1.2-3.2-2.1-.9-.9-1.6-2.1-2.1-3.4s-.7-2.9-.7-4.7.2-2.8.7-4c.5-1.2,1.1-2.3,1.9-3.2.8-.9,1.9-1.6,3.1-2.1s2.6-.8,4.1-.8ZM627.6,35.5c-1.8,0-3.2.5-4.2,1.5s-1.7,2.4-1.9,4.2h11.5c0-.8-.1-1.6-.4-2.3-.2-.7-.6-1.3-1-1.8-.5-.5-1-.9-1.7-1.2s-1.4-.4-2.3-.4Z"/>
      <path class="st2" d="M637.8,33.2h3c.3,0,.5,0,.7.2.2.1.3.3.4.5l5.3,13.2c.2.5.3,1,.5,1.5.1.5.2,1,.3,1.4.1-.5.2-.9.4-1.4s.3-1,.5-1.5l5.4-13.2c0-.2.2-.4.4-.5.2-.1.4-.2.7-.2h2.9l-8.6,20.5h-3.4l-8.6-20.5Z"/>
      <path class="st2" d="M666.7,26.7c0,.3,0,.7-.2,1-.1.3-.3.6-.6.8-.2.2-.5.4-.8.6-.3.1-.7.2-1,.2s-.7,0-1-.2c-.3-.1-.6-.3-.8-.6-.2-.2-.4-.5-.6-.8-.1-.3-.2-.6-.2-1s0-.7.2-1c.1-.3.3-.6.6-.8.2-.2.5-.4.8-.6.3-.1.6-.2,1-.2s.7,0,1,.2c.3.1.6.3.8.6.2.2.4.5.6.8.1.3.2.6.2,1ZM665.9,33.2v20.5h-3.7v-20.5h3.7Z"/>
      <path class="st2" d="M680.7,32.8c1.3,0,2.4.2,3.5.6,1.1.4,2,1,2.8,1.8.8.8,1.4,1.7,1.8,2.9s.7,2.4.7,3.9,0,.9-.2,1.1c-.1.2-.4.3-.7.3h-14c0,1.3.2,2.4.5,3.4.3,1,.8,1.8,1.4,2.4s1.3,1.1,2.1,1.4c.8.3,1.7.5,2.7.5s1.7-.1,2.4-.3c.7-.2,1.3-.4,1.7-.7.5-.2.9-.5,1.2-.7.3-.2.6-.3.8-.3s.5.1.7.3l1,1.3c-.5.5-1,1-1.6,1.4s-1.3.7-2,1-1.5.4-2.3.6c-.8.1-1.5.2-2.3.2-1.5,0-2.8-.2-4-.7-1.2-.5-2.3-1.2-3.2-2.1-.9-.9-1.6-2.1-2.1-3.4s-.7-2.9-.7-4.7.2-2.8.7-4c.5-1.2,1.1-2.3,1.9-3.2.8-.9,1.9-1.6,3.1-2.1s2.6-.8,4.1-.8ZM680.8,35.5c-1.8,0-3.2.5-4.2,1.5s-1.7,2.4-1.9,4.2h11.5c0-.8-.1-1.6-.4-2.3-.2-.7-.6-1.3-1-1.8-.5-.5-1-.9-1.7-1.2s-1.4-.4-2.3-.4Z"/>
      <path class="st2" d="M691.5,33.2h2.9c.3,0,.6,0,.7.2.2.1.3.3.4.5l4,13.2c.1.5.2,1,.3,1.4,0,.5.2.9.3,1.4.1-.5.2-.9.4-1.4.1-.5.3-.9.4-1.4l4.5-13.3c0-.2.2-.4.4-.5.2-.1.4-.2.7-.2h1.6c.3,0,.5,0,.7.2.2.1.3.3.4.5l4.3,13.3c.2.5.3.9.4,1.4.1.5.2.9.3,1.4,0-.4.2-.9.3-1.4.1-.5.2-.9.4-1.4l4.1-13.2c0-.2.2-.4.4-.5.2-.1.4-.2.7-.2h2.8l-6.8,20.5h-2.9c-.4,0-.6-.2-.7-.7l-4.7-13.9c-.1-.3-.2-.6-.3-.9,0-.3-.1-.6-.2-.9,0,.3-.1.6-.2.9,0,.3-.2.6-.3.9l-4.7,13.9c-.2.5-.4.7-.9.7h-2.8l-6.8-20.5Z"/>
      <path class="st2" d="M738.2,36.5c-.2.3-.4.4-.8.4s-.4,0-.7-.2c-.3-.1-.6-.3-1-.5-.4-.2-.8-.3-1.4-.5s-1.2-.2-1.9-.2-1.2,0-1.7.2c-.5.2-.9.4-1.3.6-.4.3-.6.6-.8.9-.2.4-.3.7-.3,1.2s.2,1,.5,1.3c.3.4.7.7,1.2.9.5.3,1.1.5,1.7.7.7.2,1.3.4,2,.6s1.4.5,2,.7c.7.3,1.2.6,1.8,1,.5.4.9.9,1.2,1.5.3.6.5,1.3.5,2.1s-.2,1.8-.5,2.6c-.3.8-.9,1.5-1.5,2.1s-1.5,1-2.5,1.4c-1,.3-2.1.5-3.4.5s-2.8-.2-4-.7c-1.2-.5-2.2-1.1-3-1.8l.9-1.4c.1-.2.2-.3.4-.4.2,0,.4-.1.6-.1s.5,0,.8.3c.3.2.6.4,1,.6.4.2.9.4,1.4.6.6.2,1.3.3,2.1.3s1.4,0,1.9-.3c.5-.2,1-.4,1.3-.7s.6-.7.8-1.1c.2-.4.3-.8.3-1.3s-.2-1-.5-1.4-.7-.7-1.2-.9c-.5-.3-1.1-.5-1.8-.7-.7-.2-1.3-.4-2-.6-.7-.2-1.4-.5-2-.7-.7-.3-1.2-.6-1.8-1-.5-.4-.9-.9-1.2-1.5s-.5-1.4-.5-2.2.2-1.5.5-2.3c.3-.7.8-1.4,1.5-1.9s1.4-1,2.4-1.3c.9-.3,2-.5,3.2-.5s2.6.2,3.7.6c1.1.4,2.1,1,2.9,1.7l-.8,1.3Z"/>
      <path class="st2" d="M742.9,51.4c0-.3,0-.7.2-1s.3-.6.5-.8c.2-.2.5-.4.8-.5.3-.1.7-.2,1-.2s.7,0,1,.2c.3.1.6.3.8.5.2.2.4.5.6.8s.2.6.2,1,0,.7-.2,1-.3.6-.6.8c-.2.2-.5.4-.8.5s-.7.2-1,.2-.7,0-1-.2c-.3-.1-.6-.3-.8-.5-.2-.2-.4-.5-.5-.8s-.2-.6-.2-1Z"/>
    </g>
    <g>
      <path class="st2" d="M460.4,72.8c-.1.2-.3.4-.4.5-.1.1-.3.2-.5.2s-.5-.1-.8-.3-.7-.5-1.2-.8-1.1-.5-1.7-.8c-.7-.2-1.5-.3-2.4-.3s-1.7.1-2.4.4c-.7.2-1.3.6-1.7,1-.5.4-.8.9-1.1,1.4-.2.5-.4,1.1-.4,1.8s.2,1.5.6,2c.4.5.9,1,1.6,1.4.7.4,1.4.7,2.3,1,.9.3,1.7.6,2.6.9.9.3,1.8.6,2.6,1,.9.4,1.6.8,2.3,1.4.7.6,1.2,1.3,1.6,2.1.4.8.6,1.8.6,3s-.2,2.5-.7,3.6c-.4,1.1-1.1,2.1-1.9,2.9-.9.8-1.9,1.5-3.1,1.9-1.2.5-2.7.7-4.2.7s-3.7-.3-5.3-1c-1.6-.7-2.9-1.6-4.1-2.8l1.2-1.9c.1-.1.2-.3.4-.4.2-.1.3-.2.5-.2.3,0,.6.2,1,.5.4.3.8.6,1.4,1,.6.4,1.2.7,2,1,.8.3,1.8.5,2.9.5s1.8-.1,2.6-.4c.7-.3,1.4-.6,1.9-1.1.5-.5.9-1,1.2-1.7.3-.6.4-1.4.4-2.2s-.2-1.6-.6-2.2c-.4-.6-.9-1-1.6-1.4-.7-.4-1.4-.7-2.3-1-.9-.3-1.7-.5-2.6-.8-.9-.3-1.8-.6-2.6-1-.9-.4-1.6-.8-2.3-1.4-.7-.6-1.2-1.3-1.6-2.2s-.6-1.9-.6-3.2.2-2,.6-3,1-1.8,1.8-2.5,1.7-1.3,2.9-1.8c1.1-.4,2.5-.7,3.9-.7s3.2.3,4.6.8c1.4.5,2.6,1.3,3.6,2.2l-1,1.9Z"/>
      <path class="st2" d="M466.6,97.2v-20.5h2.2c.5,0,.9.2,1,.7l.3,2.1c.8-.9,1.6-1.7,2.6-2.3,1-.6,2.1-.9,3.4-.9s2.6.4,3.5,1.2c.9.8,1.5,1.8,1.9,3.1.3-.7.7-1.4,1.2-1.9.5-.5,1-1,1.6-1.3.6-.4,1.2-.6,1.9-.8s1.4-.2,2-.2c1.1,0,2.1.2,3,.5.9.3,1.6.8,2.2,1.5s1.1,1.5,1.4,2.4c.3,1,.5,2.1.5,3.3v13h-3.7v-13c0-1.6-.4-2.8-1.1-3.6s-1.8-1.2-3.1-1.2-1.2.1-1.7.3c-.5.2-1,.5-1.4.9-.4.4-.7.9-1,1.5-.2.6-.4,1.3-.4,2.1v13h-3.7v-13c0-1.6-.3-2.9-1-3.7-.7-.8-1.7-1.2-3-1.2s-1.8.2-2.6.7c-.8.5-1.5,1.1-2.2,2v15.3h-3.7Z"/>
      <path class="st2" d="M516.3,97.2h-1.6c-.4,0-.7,0-.9-.2-.2-.1-.4-.3-.4-.7l-.4-1.9c-.6.5-1.1.9-1.6,1.3-.5.4-1.1.7-1.7,1-.6.3-1.2.5-1.9.6-.7.1-1.4.2-2.2.2s-1.6-.1-2.3-.3c-.7-.2-1.3-.6-1.9-1s-.9-1-1.3-1.7c-.3-.7-.5-1.5-.5-2.4s.2-1.6.7-2.3c.5-.7,1.2-1.4,2.2-2,1-.6,2.4-1.1,4-1.4,1.7-.4,3.7-.6,6.1-.6v-1.6c0-1.6-.3-2.8-1.1-3.6s-1.7-1.2-3.1-1.2-1.7.1-2.3.3-1.2.5-1.6.7c-.5.3-.8.5-1.2.7-.3.2-.6.3-1,.3s-.5,0-.7-.2-.3-.3-.4-.5l-.7-1.1c1.2-1.1,2.4-1.9,3.8-2.4,1.3-.5,2.8-.8,4.5-.8s2.2.2,3.1.6c.9.4,1.7.9,2.3,1.6.6.7,1.1,1.5,1.4,2.4s.5,2,.5,3.2v13.1ZM506.7,95c.7,0,1.2,0,1.8-.2.5-.1,1.1-.3,1.5-.5.5-.2.9-.5,1.4-.9.4-.3.9-.7,1.3-1.1v-4.2c-1.7,0-3.2.1-4.3.3-1.2.2-2.2.5-2.9.8-.7.3-1.3.7-1.6,1.2-.3.5-.5,1-.5,1.5s0,1,.3,1.4c.2.4.4.7.7,1s.7.4,1.1.5c.4.1.9.2,1.4.2Z"/>
      <path class="st2" d="M521.9,97.2v-20.5h2.1c.4,0,.7,0,.8.2.2.1.3.4.3.8l.3,3.2c.7-1.4,1.6-2.5,2.7-3.3,1.1-.8,2.3-1.2,3.7-1.2s1.1,0,1.6.2c.5.1.9.3,1.3.5l-.5,2.7c0,.3-.3.5-.6.5s-.5,0-.9-.2c-.4-.1-1-.2-1.7-.2-1.3,0-2.4.4-3.2,1.1-.9.7-1.6,1.8-2.2,3.2v13h-3.7Z"/>
      <path class="st2" d="M545,97.6c-1.7,0-2.9-.5-3.8-1.4-.9-.9-1.3-2.2-1.3-3.9v-12.5h-2.5c-.2,0-.4,0-.6-.2-.2-.1-.2-.3-.2-.6v-1.4l3.5-.4.9-6.3c0-.2.1-.4.3-.5.2-.1.3-.2.6-.2h1.9v7h6v2.6h-6v12.3c0,.9.2,1.5.6,1.9.4.4,1,.6,1.7.6s.7,0,1-.2c.3,0,.5-.2.7-.3s.4-.2.5-.3c.1-.1.3-.2.4-.2.2,0,.4.1.5.3l1.1,1.7c-.6.6-1.4,1-2.3,1.4s-1.8.5-2.8.5Z"/>
      <path class="st2" d="M562.5,76.4c1.3,0,2.4.2,3.5.6s2,1,2.8,1.8c.8.8,1.4,1.7,1.8,2.9.4,1.1.7,2.4.7,3.9s0,.9-.2,1.1-.4.3-.7.3h-14c0,1.3.2,2.4.5,3.4s.8,1.8,1.4,2.4c.6.6,1.3,1.1,2.1,1.4.8.3,1.7.5,2.7.5s1.7-.1,2.4-.3,1.3-.4,1.7-.7c.5-.2.9-.5,1.2-.7.3-.2.6-.3.8-.3s.5.1.7.3l1,1.3c-.5.5-1,1-1.6,1.4s-1.3.7-2,1-1.5.4-2.3.6c-.8.1-1.5.2-2.3.2-1.5,0-2.8-.2-4-.7-1.2-.5-2.3-1.2-3.2-2.1-.9-.9-1.6-2.1-2.1-3.4-.5-1.4-.7-2.9-.7-4.7s.2-2.8.7-4c.5-1.2,1.1-2.3,1.9-3.2.8-.9,1.9-1.6,3.1-2.1s2.6-.8,4.1-.8ZM562.6,79.1c-1.8,0-3.2.5-4.2,1.5s-1.7,2.4-1.9,4.2h11.5c0-.8-.1-1.6-.4-2.3-.2-.7-.6-1.3-1-1.8-.5-.5-1-.9-1.7-1.2s-1.4-.4-2.3-.4Z"/>
      <path class="st2" d="M576,97.2v-20.5h2.1c.4,0,.7,0,.8.2.2.1.3.4.3.8l.3,3.2c.7-1.4,1.6-2.5,2.7-3.3,1.1-.8,2.3-1.2,3.7-1.2s1.1,0,1.6.2c.5.1.9.3,1.3.5l-.5,2.7c0,.3-.3.5-.6.5s-.5,0-.9-.2c-.4-.1-1-.2-1.7-.2-1.3,0-2.4.4-3.2,1.1-.9.7-1.6,1.8-2.2,3.2v13h-3.7Z"/>
      <path class="st2" d="M622.4,91.2c.2,0,.4,0,.6.3l1.6,1.7c-1.2,1.4-2.7,2.4-4.4,3.2-1.7.8-3.8,1.2-6.3,1.2s-4.1-.4-5.8-1.1c-1.7-.7-3.2-1.7-4.5-3s-2.2-2.9-2.9-4.7c-.7-1.8-1-3.8-1-6s.4-4.2,1.1-6,1.8-3.4,3.1-4.7c1.3-1.3,2.9-2.3,4.7-3,1.8-.7,3.9-1.1,6.1-1.1s4.1.3,5.7,1,3,1.6,4.2,2.7l-1.3,1.8c0,.1-.2.2-.3.3-.1,0-.3.1-.5.1s-.4,0-.6-.2c-.2-.1-.4-.3-.7-.5-.3-.2-.6-.4-1-.6-.4-.2-.8-.4-1.3-.6s-1.1-.3-1.8-.5-1.5-.2-2.4-.2c-1.6,0-3.1.3-4.4.8s-2.5,1.3-3.4,2.3c-1,1-1.7,2.2-2.2,3.6-.5,1.4-.8,3-.8,4.7s.3,3.4.8,4.8c.5,1.4,1.3,2.6,2.2,3.6.9,1,2,1.7,3.3,2.2,1.3.5,2.6.8,4.1.8s1.7,0,2.4-.2,1.4-.3,2-.5c.6-.2,1.2-.5,1.7-.8.5-.3,1-.7,1.6-1.2.2-.2.5-.3.7-.3Z"/>
      <path class="st2" d="M629.3,97.2v-29.8h3.7v12c.9-.9,1.9-1.7,3-2.2,1.1-.6,2.4-.8,3.8-.8s2.2.2,3,.6c.9.4,1.6.9,2.2,1.6.6.7,1,1.5,1.3,2.5.3,1,.5,2,.5,3.2v13h-3.7v-13c0-1.6-.4-2.8-1.1-3.6-.7-.9-1.8-1.3-3.3-1.3s-2.1.3-3.1.8c-.9.5-1.8,1.2-2.6,2.1v15.1h-3.7Z"/>
      <path class="st2" d="M661,76.4c1.5,0,2.9.3,4.2.7,1.2.5,2.3,1.2,3.2,2.1.9.9,1.5,2,2,3.3s.7,2.8.7,4.4-.2,3.1-.7,4.4-1.1,2.4-2,3.3c-.9.9-1.9,1.6-3.2,2.1-1.2.5-2.6.7-4.2.7s-2.9-.2-4.2-.7c-1.2-.5-2.3-1.2-3.2-2.1s-1.5-2-2-3.3c-.5-1.3-.7-2.7-.7-4.4s.2-3.1.7-4.4c.5-1.3,1.1-2.4,2-3.3s1.9-1.6,3.2-2.1c1.2-.5,2.6-.7,4.2-.7ZM661,94.7c2.1,0,3.6-.7,4.7-2,1-1.4,1.5-3.2,1.5-5.7s-.5-4.3-1.5-5.7c-1-1.4-2.6-2-4.7-2s-2,.2-2.7.5c-.8.3-1.4.9-1.9,1.5-.5.7-.9,1.5-1.2,2.4-.3,1-.4,2.1-.4,3.3s.1,2.3.4,3.3.6,1.8,1.2,2.4c.5.7,1.2,1.2,1.9,1.5.8.3,1.7.5,2.7.5Z"/>
      <path class="st2" d="M680.5,70.3c0,.4,0,.7-.2,1-.1.3-.3.6-.6.8-.2.2-.5.4-.8.6s-.7.2-1,.2-.7,0-1-.2-.6-.3-.8-.6c-.2-.2-.4-.5-.6-.8-.1-.3-.2-.6-.2-1s0-.7.2-1c.1-.3.3-.6.6-.8.2-.2.5-.4.8-.6.3-.1.6-.2,1-.2s.7,0,1,.2c.3.1.6.3.8.6.2.2.4.5.6.8.1.3.2.6.2,1ZM679.7,76.8v20.5h-3.7v-20.5h3.7Z"/>
      <path class="st2" d="M700.6,80.4c-.1.1-.2.3-.3.3-.1,0-.3.1-.5.1s-.4,0-.7-.3c-.2-.2-.6-.4-.9-.6-.4-.2-.8-.4-1.4-.6-.5-.2-1.2-.3-2-.3s-1.9.2-2.7.5c-.8.4-1.5.9-2,1.5-.5.7-.9,1.5-1.2,2.4s-.4,2-.4,3.2.1,2.3.4,3.3c.3,1,.7,1.8,1.2,2.4s1.2,1.2,1.9,1.5c.8.3,1.6.5,2.5.5s1.6-.1,2.2-.3c.6-.2,1.1-.4,1.5-.7s.7-.5,1-.7c.2-.2.5-.3.7-.3s.6.1.7.3l1,1.3c-.9,1.1-2.1,1.9-3.4,2.4-1.4.5-2.8.8-4.3.8s-2.5-.2-3.7-.7c-1.1-.5-2.1-1.2-2.9-2-.8-.9-1.5-2-2-3.3s-.7-2.8-.7-4.5.2-2.9.7-4.2c.4-1.3,1.1-2.4,1.9-3.3.8-.9,1.9-1.7,3.1-2.2,1.2-.5,2.6-.8,4.2-.8s2.8.2,3.9.7c1.1.5,2.1,1.1,3,2l-1,1.3Z"/>
      <path class="st2" d="M714,76.4c1.3,0,2.4.2,3.5.6s2,1,2.8,1.8c.8.8,1.4,1.7,1.8,2.9.4,1.1.7,2.4.7,3.9s0,.9-.2,1.1-.4.3-.7.3h-14c0,1.3.2,2.4.5,3.4s.8,1.8,1.4,2.4c.6.6,1.3,1.1,2.1,1.4.8.3,1.7.5,2.7.5s1.7-.1,2.4-.3,1.3-.4,1.7-.7c.5-.2.9-.5,1.2-.7.3-.2.6-.3.8-.3s.5.1.7.3l1,1.3c-.5.5-1,1-1.6,1.4s-1.3.7-2,1-1.5.4-2.3.6c-.8.1-1.5.2-2.3.2-1.5,0-2.8-.2-4-.7-1.2-.5-2.3-1.2-3.2-2.1-.9-.9-1.6-2.1-2.1-3.4-.5-1.4-.7-2.9-.7-4.7s.2-2.8.7-4c.5-1.2,1.1-2.3,1.9-3.2.8-.9,1.9-1.6,3.1-2.1s2.6-.8,4.1-.8ZM714.1,79.1c-1.8,0-3.2.5-4.2,1.5s-1.7,2.4-1.9,4.2h11.5c0-.8-.1-1.6-.4-2.3-.2-.7-.6-1.3-1-1.8-.5-.5-1-.9-1.7-1.2s-1.4-.4-2.3-.4Z"/>
      <path class="st2" d="M739.5,80.1c-.2.3-.4.4-.8.4s-.4,0-.7-.2c-.3-.1-.6-.3-1-.5-.4-.2-.8-.3-1.4-.5s-1.2-.2-1.9-.2-1.2,0-1.7.2c-.5.2-.9.4-1.3.6-.4.3-.6.6-.8.9-.2.4-.3.7-.3,1.2s.2,1,.5,1.3.7.7,1.2.9c.5.3,1.1.5,1.7.7.7.2,1.3.4,2,.6s1.4.5,2,.7c.7.3,1.2.6,1.8,1,.5.4.9.9,1.2,1.5s.5,1.3.5,2.1-.2,1.8-.5,2.6c-.3.8-.9,1.5-1.5,2.1-.7.6-1.5,1-2.5,1.4-1,.3-2.1.5-3.4.5s-2.8-.2-4-.7c-1.2-.5-2.2-1.1-3-1.8l.9-1.4c.1-.2.2-.3.4-.4.2,0,.4-.1.6-.1s.5,0,.8.3c.3.2.6.4,1,.6.4.2.9.4,1.4.6.6.2,1.3.3,2.1.3s1.4,0,1.9-.3c.5-.2,1-.4,1.3-.7s.6-.7.8-1.1c.2-.4.3-.8.3-1.3s-.2-1-.5-1.4-.7-.7-1.2-.9c-.5-.3-1.1-.5-1.8-.7-.7-.2-1.3-.4-2-.6-.7-.2-1.4-.5-2-.7-.7-.3-1.2-.6-1.8-1-.5-.4-.9-.9-1.2-1.5-.3-.6-.5-1.4-.5-2.2s.2-1.5.5-2.3c.3-.7.8-1.4,1.5-1.9.6-.5,1.4-1,2.4-1.3.9-.3,2-.5,3.2-.5s2.6.2,3.7.6c1.1.4,2.1,1,2.9,1.7l-.8,1.3Z"/>
    </g>
  </g>
</svg>