<svg xmlns="http://www.w3.org/2000/svg" viewBox="0 0 40 40">
  <defs>
    <style>
      .st0 { fill: #1e2f3f; }
      .st1 { fill: #334860; }
      .st2 { fill: #409363; }
    </style>
  </defs>
  <g transform="translate(0, 1)">
    <path class="st1" d="M32.9,14v2.1c0,4.1-.7,7.7-2.1,10.6-1.1,2.4-2.6,4.3-4.5,5.9-3.2,2.6-6.4,3-6.6,3.1-.2,0-3.4-.5-6.6-3.1-1.9-1.5-3.4-3.5-4.5-5.9-1.4-3-2.1-6.5-2.1-10.6v-4.9l13.2-5.8,8.4,3.7,2.4-2.3-10.8-4.8L3.5,9.2v6.6c0,4.7.8,8.8,2.4,12.3,1.3,2.8,3.1,5.2,5.5,7.1,4,3.2,7.9,3.7,8.1,3.7h.3s.3,0,.3,0c.2,0,4.2-.6,8.1-3.7,2.3-1.9,4.1-4.2,5.5-7.1,1.6-3.4,2.4-7.6,2.4-12.3v-6.5l-3,4.7Z"/>
    <path class="st2" d="M34.9,7l-13.3,20.7c-.8,1.3-2.6,1.3-3.5.1l-8.5-11.4c-.4-.5.2-1.2.7-.9l9.1,4.6,14.6-13.9c.5-.5,1.3.2.9.8Z"/>
    <path class="st0" d="M35.9,9.4v6.5c0,4.7-.8,8.8-2.4,12.3-1.3,2.8-3.1,5.2-5.5,7.1-4,3.2-7.9,3.7-8.1,3.7h-.3s0-3.1,0-3.1c.2,0,3.4-.5,6.6-3.1,1.9-1.5,3.4-3.5,4.5-5.9,1.4-3,2.1-6.5,2.1-10.6v-2.1l3-4.7Z"/>
    <polygon class="st0" points="30.5 6.8 28.1 9.1 19.7 5.3 19.7 2 30.5 6.8"/>
  </g>
</svg>
