<svg id="Objects" xmlns="http://www.w3.org/2000/svg" version="1.1" viewBox="0 0 135 40">
  <defs>
    <style>
      .st0 {
        fill: #1e2f3f;
      }

      .st1 {
        fill: #334860;
      }

      .st2 {
        fill: #409363;
      }
    </style>
  </defs>
  <g>
    <path class="st1" d="M32.9,14v2.1c0,4.1-.7,7.7-2.1,10.6-1.1,2.4-2.6,4.3-4.5,5.9-3.2,2.6-6.4,3-6.6,3.1-.2,0-3.4-.5-6.6-3.1-1.9-1.5-3.4-3.5-4.5-5.9-1.4-3-2.1-6.5-2.1-10.6v-4.9l13.2-5.8,8.4,3.7,2.4-2.3-10.8-4.8L3.5,9.2v6.6c0,4.7.8,8.8,2.4,12.3,1.3,2.8,3.1,5.2,5.5,7.1,4,3.2,7.9,3.7,8.1,3.7h.3s.3,0,.3,0c.2,0,4.2-.6,8.1-3.7,2.3-1.9,4.1-4.2,5.5-7.1,1.6-3.4,2.4-7.6,2.4-12.3v-6.5l-3,4.7Z"/>
    <path class="st2" d="M34.9,7l-13.3,20.7c-.8,1.3-2.6,1.3-3.5.1l-8.5-11.4c-.4-.5.2-1.2.7-.9l9.1,4.6,14.6-13.9c.5-.5,1.3.2.9.8Z"/>
    <path class="st0" d="M35.9,9.4v6.5c0,4.7-.8,8.8-2.4,12.3-1.3,2.8-3.1,5.2-5.5,7.1-4,3.2-7.9,3.7-8.1,3.7h-.3s0-3.1,0-3.1c.2,0,3.4-.5,6.6-3.1,1.9-1.5,3.4-3.5,4.5-5.9,1.4-3,2.1-6.5,2.1-10.6v-2.1l3-4.7Z"/>
    <polygon class="st0" points="30.5 6.8 28.1 9.1 19.7 5.3 19.7 2 30.5 6.8"/>
  </g>
  <g>
    <g>
      <path class="st0" d="M43,8.8c.5-.9,1.2-1.7,2.2-2.2.9-.5,2-.8,3.2-.8s2.7.4,3.7,1.1c1,.8,1.7,1.8,2.1,3.1h-3.3c-.2-.5-.6-.9-1-1.2-.4-.3-1-.4-1.5-.4-.9,0-1.7.3-2.2,1-.6.6-.8,1.5-.8,2.5s.3,1.9.8,2.5c.6.6,1.3,1,2.2,1s1.1-.1,1.5-.4c.4-.3.8-.7,1-1.2h3.3c-.3,1.3-1,2.4-2.1,3.1-1,.8-2.3,1.1-3.7,1.1s-2.2-.3-3.2-.8c-.9-.5-1.7-1.3-2.2-2.2-.5-.9-.8-2-.8-3.2s.3-2.3.8-3.2Z"/>
      <path class="st0" d="M65.5,8.4v9.7h-3v-1.3c-.3.4-.7.8-1.2,1-.5.3-1.1.4-1.7.4s-1.4-.2-2-.5c-.6-.3-1-.8-1.3-1.4-.3-.6-.5-1.4-.5-2.2v-5.7h2.9v5.3c0,.6.2,1.2.5,1.5.3.4.8.5,1.4.5s1-.2,1.4-.5c.3-.4.5-.9.5-1.5v-5.3h3Z"/>
      <path class="st0" d="M69.3,17.8c-.7-.3-1.2-.7-1.6-1.2-.4-.5-.6-1.1-.6-1.7h2.9c0,.3.2.6.5.8.3.2.6.3,1,.3s.7,0,.9-.2c.2-.1.3-.3.3-.6s-.1-.5-.4-.6c-.3-.1-.8-.3-1.4-.4-.7-.2-1.3-.3-1.7-.5-.5-.2-.9-.5-1.2-.8-.3-.4-.5-.9-.5-1.6s.2-1.1.5-1.5c.3-.5.8-.8,1.4-1.1.6-.3,1.3-.4,2.1-.4,1.2,0,2.2.3,2.9.9.7.6,1.1,1.4,1.2,2.4h-2.7c0-.3-.2-.6-.4-.8-.2-.2-.6-.3-1-.3s-.6,0-.8.2c-.2.1-.3.3-.3.5s.1.5.4.6c.3.1.8.3,1.4.4.7.2,1.3.4,1.8.5.5.2.8.5,1.2.9.3.4.5.9.5,1.6,0,.6-.2,1.1-.5,1.5-.3.4-.8.8-1.4,1-.6.3-1.3.4-2.1.4s-1.6-.1-2.3-.4Z"/>
      <path class="st0" d="M82.7,15.6v2.5h-1.5c-1.1,0-1.9-.3-2.5-.8-.6-.5-.9-1.4-.9-2.6v-3.8h-1.2v-2.5h1.2v-2.4h3v2.4h1.9v2.5h-1.9v3.9c0,.3,0,.5.2.6.1.1.4.2.7.2h1.1Z"/>
      <path class="st0" d="M86.2,17.6c-.8-.4-1.4-1-1.8-1.7-.4-.8-.7-1.6-.7-2.6s.2-1.9.7-2.6c.4-.8,1-1.3,1.8-1.7.8-.4,1.6-.6,2.6-.6s1.8.2,2.6.6c.8.4,1.4,1,1.8,1.7.4.8.7,1.6.7,2.6s-.2,1.9-.7,2.6c-.4.8-1.1,1.3-1.8,1.7-.8.4-1.6.6-2.6.6s-1.8-.2-2.6-.6ZM90.2,15c.4-.4.6-1,.6-1.8s-.2-1.4-.6-1.8c-.4-.4-.9-.6-1.4-.6s-1.1.2-1.4.6c-.4.4-.6,1-.6,1.8s.2,1.4.6,1.8c.4.4.8.6,1.4.6s1-.2,1.4-.6Z"/>
      <path class="st0" d="M110.6,9.4c.7.7,1.1,1.7,1.1,3v5.7h-2.9v-5.3c0-.6-.2-1.1-.5-1.4-.3-.3-.8-.5-1.4-.5s-1,.2-1.4.5c-.3.3-.5.8-.5,1.4v5.3h-2.9v-5.3c0-.6-.2-1.1-.5-1.4-.3-.3-.8-.5-1.4-.5s-1,.2-1.4.5c-.3.3-.5.8-.5,1.4v5.3h-3v-9.7h3v1.2c.3-.4.7-.7,1.2-1s1-.4,1.6-.4,1.4.2,2,.5,1,.8,1.3,1.3c.3-.5.8-1,1.4-1.3.6-.3,1.2-.5,1.9-.5,1.2,0,2.2.4,2.9,1.1Z"/>
      <path class="st0" d="M122.8,14h-6.7c0,.6.2,1.1.6,1.4.3.3.8.5,1.3.5.7,0,1.3-.3,1.5-.9h3.2c-.2.6-.5,1.2-.9,1.7-.4.5-1,.9-1.6,1.2-.6.3-1.3.4-2.1.4s-1.8-.2-2.5-.6c-.7-.4-1.3-1-1.7-1.7-.4-.8-.6-1.6-.6-2.6s.2-1.9.6-2.6c.4-.8,1-1.3,1.7-1.7.7-.4,1.6-.6,2.5-.6s1.8.2,2.5.6c.7.4,1.3,1,1.7,1.7.4.7.6,1.6.6,2.5s0,.6,0,.9ZM119.8,12.3c0-.5-.2-.9-.5-1.2-.3-.3-.8-.5-1.3-.5s-.9.1-1.3.4c-.3.3-.6.7-.6,1.2h3.7Z"/>
      <path class="st0" d="M128.7,8.8c.5-.3,1.1-.5,1.7-.5v3.1h-.8c-.7,0-1.3.2-1.7.5-.4.3-.6.9-.6,1.7v4.5h-3v-9.7h3v1.6c.3-.5.8-1,1.3-1.3Z"/>
    </g>
    <g>
      <path class="st0" d="M48.9,33.3l-2.5-4.6h-.7v4.6h-3v-12.2h5c1,0,1.8.2,2.5.5.7.3,1.2.8,1.5,1.4.3.6.5,1.2.5,2s-.2,1.5-.7,2.2c-.5.6-1.1,1.1-2,1.4l2.8,4.8h-3.3ZM45.7,26.6h1.8c.5,0,1-.1,1.2-.4.3-.3.4-.6.4-1.1s-.1-.8-.4-1.1c-.3-.3-.7-.4-1.2-.4h-1.8v3Z"/>
      <path class="st0" d="M63.1,29.2h-6.7c0,.6.2,1.1.6,1.4.3.3.8.5,1.3.5.7,0,1.3-.3,1.5-.9h3.2c-.2.6-.5,1.2-.9,1.7-.4.5-1,.9-1.6,1.2-.6.3-1.3.4-2.1.4s-1.8-.2-2.5-.6c-.7-.4-1.3-1-1.7-1.7-.4-.8-.6-1.6-.6-2.6s.2-1.9.6-2.6c.4-.8,1-1.3,1.7-1.7.7-.4,1.6-.6,2.5-.6s1.8.2,2.5.6c.7.4,1.3,1,1.7,1.7.4.7.6,1.6.6,2.5s0,.6,0,.9ZM60.1,27.5c0-.5-.2-.9-.5-1.2-.3-.3-.8-.5-1.3-.5s-.9.1-1.3.4c-.3.3-.6.7-.6,1.2h3.7Z"/>
      <path class="st0" d="M68.9,23.9c.5-.3,1.1-.4,1.8-.4s1.5.2,2.2.6c.6.4,1.2,1,1.5,1.7.4.8.6,1.6.6,2.6s-.2,1.9-.6,2.6c-.4.8-.9,1.3-1.5,1.8-.6.4-1.4.6-2.2.6s-1.3-.1-1.8-.4c-.5-.3-.9-.6-1.2-1.1v6h-3v-14.3h3v1.4c.3-.5.7-.8,1.2-1.1ZM71.3,26.7c-.4-.4-.9-.6-1.5-.6s-1.1.2-1.5.6c-.4.4-.6,1-.6,1.8s.2,1.3.6,1.8c.4.4.9.6,1.5.6s1.1-.2,1.5-.7c.4-.4.6-1,.6-1.8s-.2-1.3-.6-1.7Z"/>
      <path class="st0" d="M78.3,32.8c-.8-.4-1.4-1-1.8-1.7-.4-.8-.7-1.6-.7-2.6s.2-1.9.7-2.6c.4-.8,1-1.3,1.8-1.7.8-.4,1.6-.6,2.6-.6s1.8.2,2.6.6c.8.4,1.4,1,1.8,1.7.4.8.7,1.6.7,2.6s-.2,1.9-.7,2.6c-.4.8-1.1,1.3-1.8,1.7-.8.4-1.6.6-2.6.6s-1.8-.2-2.6-.6ZM82.3,30.2c.4-.4.6-1,.6-1.8s-.2-1.4-.6-1.8c-.4-.4-.9-.6-1.4-.6s-1.1.2-1.4.6c-.4.4-.6,1-.6,1.8s.2,1.4.6,1.8c.4.4.8.6,1.4.6s1-.2,1.4-.6Z"/>
      <path class="st0" d="M91.8,24c.5-.3,1.1-.5,1.7-.5v3.1h-.8c-.7,0-1.3.2-1.7.5-.4.3-.6.9-.6,1.7v4.5h-3v-9.7h3v1.6c.3-.5.8-1,1.3-1.3Z"/>
      <path class="st0" d="M100.3,30.8v2.5h-1.5c-1.1,0-1.9-.3-2.5-.8-.6-.5-.9-1.4-.9-2.6v-3.8h-1.2v-2.5h1.2v-2.4h3v2.4h1.9v2.5h-1.9v3.9c0,.3,0,.5.2.6.1.1.4.2.7.2h1.1Z"/>
      <path class="st0" d="M103.7,33c-.7-.3-1.2-.7-1.6-1.2-.4-.5-.6-1.1-.6-1.7h2.9c0,.3.2.6.5.8.3.2.6.3,1,.3s.7,0,.9-.2c.2-.1.3-.3.3-.6s-.1-.5-.4-.6c-.3-.1-.8-.3-1.4-.4-.7-.2-1.3-.3-1.7-.5-.5-.2-.9-.5-1.2-.8-.3-.4-.5-.9-.5-1.6s.2-1.1.5-1.5c.3-.5.8-.8,1.4-1.1.6-.3,1.3-.4,2.1-.4,1.2,0,2.2.3,2.9.9.7.6,1.1,1.4,1.2,2.4h-2.7c0-.3-.2-.6-.4-.8-.2-.2-.6-.3-1-.3s-.6,0-.8.2c-.2.1-.3.3-.3.5s.1.5.4.6c.3.1.8.3,1.4.4.7.2,1.3.4,1.8.5.5.2.8.5,1.2.9.3.4.5.9.5,1.6,0,.6-.2,1.1-.5,1.5-.3.4-.8.8-1.4,1-.6.3-1.3.4-2.1.4s-1.6-.1-2.3-.4Z"/>
    </g>
  </g>
</svg>
